<svg xmlns="http://www.w3.org/2000/svg" enable-background="new 0 0 24 24" viewBox="0 0 24 24" id="steemit">
  <polygon points="7.586 17.006 7.587 17.009 7.59 17.016"></polygon>
  <path fill="#38E7B2" d="M3.965,16.433l0.012,0.01c0.562,0.481,1.817,1.229,1.839,1.267c-0.823,2.091-3.455,2.663-3.455,2.663c2.347,1.374,5.101,2.342,8.038,2.728l0.111,0.012c0.649,0.087,1.401,0.137,2.162,0.137c0.6,0,1.192-0.034,1.777-0.094c2.341-0.289,4.394-1.353,5.93-2.925l0.002-0.002c1.654-1.625,2.68-3.885,2.68-6.385c0-2.473-1.003-4.711-2.625-6.331h-0.001c-0.883-0.884-1.947-1.586-3.132-2.047l-0.062-0.022c0.677-1.991,3.078-2.717,3.078-2.717C17.761,1.48,14.754,0.75,11.575,0.75c-1.039,0-2.059,0.082-3.055,0.232C6.304,1.434,4.414,2.602,3.057,4.231L3.045,4.246c-1.309,1.5-2.107,3.476-2.107,5.639C0.938,12.507,2.113,14.855,3.965,16.433z"></path>
  <path fill="#FFF" d="M6.866,20.079c0.589-0.551,1.063-1.217,1.385-1.963l0.015-0.038c0.065-0.165,0.104-0.356,0.104-0.556c0-0.241-0.056-0.468-0.154-0.671c-0.411-0.831-0.652-1.808-0.652-2.842c0-1.838,0.76-3.5,1.984-4.685l0.002-0.002c1.218-1.18,2.88-1.908,4.712-1.908c1.858,0,3.542,0.749,4.766,1.961c1.176,1.225,1.9,2.892,1.9,4.728c0,1.894-0.771,3.608-2.015,4.845l0.002,0.002c-1.267,1.202-2.92,2.01-4.754,2.218l-0.038,0.004c-0.477,0.053-1.03,0.084-1.591,0.084c-0.584,0-1.161-0.035-1.728-0.099c-1.468-0.207-2.794-0.583-4.038-1.115L6.866,20.079z"></path>
  <path d="M12.685,24c-0.792,0-1.586-0.05-2.297-0.144l-0.099-0.011c-3.009-0.389-5.932-1.364-8.466-2.822c-0.27-0.155-0.415-0.46-0.367-0.767c0.049-0.307,0.28-0.553,0.584-0.617c0.019-0.004,1.806-0.41,2.684-1.672c-0.441-0.28-1.009-0.65-1.366-0.952l0.471-0.583l-0.481,0.575C1.22,15.227,0,12.631,0,9.885c0-2.263,0.828-4.442,2.332-6.137c1.535-1.813,3.603-3.023,5.98-3.501C9.426,0.081,10.508,0,11.567,0c3.233,0,6.422,0.71,9.219,2.053c0.28,0.134,0.448,0.426,0.424,0.735c-0.025,0.31-0.237,0.571-0.535,0.659c-0.016,0.005-1.538,0.479-2.318,1.619c1.047,0.494,1.953,1.129,2.749,1.911C22.972,8.811,24,11.249,24,13.844c0,2.626-1.049,5.085-2.954,6.925c-1.734,1.744-3.972,2.83-6.464,3.132C13.911,23.968,13.296,24,12.685,24z M4.014,20.477c2.004,0.946,4.207,1.59,6.455,1.88l0.101,0.012c1.171,0.154,2.458,0.181,3.847,0.042c2.14-0.26,4.072-1.196,5.574-2.708c1.623-1.567,2.51-3.644,2.51-5.858c0-2.188-0.868-4.247-2.445-5.796c-0.842-0.827-1.827-1.46-2.929-1.882c-0.378-0.145-0.636-0.584-0.504-0.967c0.396-1.144,1.25-1.926,2.03-2.429c-3.107-1.17-6.585-1.567-10.082-1.046C6.565,2.128,4.791,3.164,3.478,4.716C2.193,6.163,1.5,7.989,1.5,9.885c0,2.296,1.02,4.469,2.798,5.963l0,0c0.384,0.322,1.109,0.778,1.499,1.023c0.385,0.242,0.454,0.285,0.553,0.445c0.124,0.203,0.146,0.452,0.058,0.672C5.911,19.229,4.901,20.007,4.014,20.477z"></path>
  <path d="M12.474,21.722c-0.583,0-1.181-0.034-1.776-0.103c-1.513-0.213-3.915-1.056-4.017-1.092C6.434,20.44,6.25,20.23,6.195,19.975c-0.054-0.257,0.03-0.522,0.222-0.701c0.511-0.479,0.908-1.042,1.18-1.673c0.038-0.097,0.055-0.191,0.055-0.285c0-0.115-0.025-0.227-0.076-0.331c-0.465-0.938-0.713-2.017-0.713-3.11c0-1.949,0.771-3.771,2.169-5.128C9.039,8.738,9.048,8.73,9.056,8.724c1.381-1.328,3.195-2.06,5.112-2.06c1.958,0,3.803,0.76,5.194,2.139c1.347,1.401,2.082,3.23,2.082,5.163c0,1.975-0.762,3.829-2.146,5.229c-0.019,0.021-0.037,0.042-0.058,0.062c-1.384,1.315-3.19,2.158-5.086,2.374C13.607,21.691,13.04,21.722,12.474,21.722z M8.245,19.464c0.798,0.25,1.88,0.561,2.642,0.667c1.023,0.117,2.141,0.115,3.061,0.013c1.59-0.18,3.072-0.864,4.215-1.933c0.011-0.011,0.021-0.021,0.031-0.032c1.129-1.122,1.751-2.618,1.751-4.213c0-1.543-0.586-3.003-1.651-4.111c-1.096-1.085-2.565-1.69-4.125-1.69c-1.535,0-2.988,0.589-4.09,1.657c-0.008,0.007-0.015,0.014-0.021,0.021c-1.093,1.07-1.694,2.501-1.694,4.032c0,0.863,0.194,1.711,0.561,2.451c0.152,0.316,0.229,0.647,0.229,0.99c0,0.284-0.054,0.568-0.155,0.822C8.789,18.622,8.539,19.062,8.245,19.464z"></path>
</svg>
